HIERARCHY
ROOT RootJoint
{
    OFFSET   0.000000   0.000000   0.000000
    CHANNELS 6 Xposition Yposition Zposition Xrotation Yrotation Zrotation
    JOINT pelvis_lowerback
    {
        OFFSET   0.000000   0.093605   0.000000
        CHANNELS 3 Xrotation Yrotation Zrotation
        JOINT lowerback_torso
        {
            OFFSET   0.000000   0.100000   0.000000
            CHANNELS 3 Xrotation Yrotation Zrotation
            JOINT torso_head
            {
                OFFSET   0.000000   0.282350   0.000000
                CHANNELS 3 Xrotation Yrotation Zrotation
                End Site
                {
                    OFFSET   0.000000   0.192650   0.000000
                }
            }
            JOINT rTorso_Clavicle
            {
                OFFSET  -0.001000   0.157500   0.000000
                CHANNELS 3 Xrotation Yrotation Zrotation
                JOINT rShoulder
                {
                    OFFSET  -0.117647   0.000000   0.000000
                    CHANNELS 3 Xrotation Yrotation Zrotation
                    JOINT rElbow
                    {
                        OFFSET  -0.245000   0.000000   0.000000
                        CHANNELS 3 Xrotation Yrotation Zrotation
                        JOINT rWrist
                        {
                            OFFSET  -0.240000   0.000000   0.000000
                            CHANNELS 3 Xrotation Yrotation Zrotation
                            End Site
                            {
                                OFFSET  -0.116353  -0.002500   0.000000
                            }
                        }
                    }
                }
            }
            JOINT lTorso_Clavicle
            {
                OFFSET   0.001000   0.157500   0.000000
                CHANNELS 3 Xrotation Yrotation Zrotation
                JOINT lShoulder
                {
                    OFFSET   0.117647   0.000000   0.000000
                    CHANNELS 3 Xrotation Yrotation Zrotation
                    JOINT lElbow
                    {
                        OFFSET   0.245000   0.000000   0.000000
                        CHANNELS 3 Xrotation Yrotation Zrotation
                        JOINT lWrist
                        {
                            OFFSET   0.240000   0.000000   0.000000
                            CHANNELS 3 Xrotation Yrotation Zrotation
                            End Site
                            {
                                OFFSET   0.116353  -0.002500   0.000000
                            }
                        }
                    }
                }
            }
        }
    }
    JOINT rHip
    {
        OFFSET  -0.100000  -0.051395   0.000000
        CHANNELS 3 Xrotation Yrotation Zrotation
        JOINT rKnee
        {
            OFFSET   0.000000  -0.410000   0.000000
            CHANNELS 3 Xrotation Yrotation Zrotation
            JOINT rAnkle
            {
                OFFSET   0.000000  -0.390000   0.000000
                CHANNELS 3 Xrotation Yrotation Zrotation
                JOINT rToeJoint
                {
                    OFFSET   0.000000  -0.050000   0.130000
                    CHANNELS 3 Xrotation Yrotation Zrotation
                    End Site
                    {
                        OFFSET  -0.010000   0.002000   0.060000
                    }
                }
            }
        }
    }
    JOINT lHip
    {
        OFFSET   0.100000  -0.051395   0.000000
        CHANNELS 3 Xrotation Yrotation Zrotation
        JOINT lKnee
        {
            OFFSET   0.000000  -0.410000   0.000000
            CHANNELS 3 Xrotation Yrotation Zrotation
            JOINT lAnkle
            {
                OFFSET   0.000000  -0.390000   0.000000
                CHANNELS 3 Xrotation Yrotation Zrotation
                JOINT lToeJoint
                {
                    OFFSET   0.000000  -0.050000   0.130000
                    CHANNELS 3 Xrotation Yrotation Zrotation
                    End Site
                    {
                        OFFSET   0.010000   0.002000   0.060000
                    }
                }
            }
        }
    }
}
MOTION
Frames: 8
Frame Time:   0.008333
 -1.896558   0.888441   4.297415  -2.407414  -2.010652  -0.647311   7.831522  -0.618185   1.795341  -2.452300  -1.255297   0.877638  -3.416402  -1.534416   2.684585  -4.153668  14.713288 -10.312421 -16.340286  36.089539  21.383804  -0.004668  84.088305   0.003885  -9.005473   8.710453   3.505006  -4.486592  -6.762617   7.995584 -27.984094   3.571316 -17.963124  -0.000205 -67.599513   0.000043 -13.868258 -10.406558  10.928377 -28.055567  -1.118106  -7.704008  51.249272   0.020823  -0.005623 -10.807478  -6.826615   2.176990   1.305158   0.000052   0.000103  -0.334259  -2.318081   5.152532  26.264785   0.000858   0.004079 -23.787525  -2.719645  -1.483981  -0.073474  -0.000037   0.000039
 -1.896986   0.890091   4.292698  -2.363023  -1.958260  -0.615144   7.746323  -0.640837   1.774617  -2.458387  -1.273448   0.961377  -3.520303  -1.573913   2.709593  -4.101258  14.799108 -10.305928 -16.351164  36.193100  21.364110  -0.002845  83.801534   0.002093  -9.009486   8.682175   3.499592  -4.449146  -6.621121   7.993100 -27.947624   3.639868 -17.905104  -0.000532 -67.796885   0.000027 -13.887134 -10.272107  10.932397 -27.273089  -0.897887  -8.032698  52.287938   0.020794  -0.004844 -10.852523  -6.786799   1.862426   1.280129  -0.000173   0.000074  -0.457817  -2.511306   5.120788  25.697780   0.000951   0.003856 -23.156583  -2.585166  -1.347352  -0.041279  -0.000071   0.000031
 -1.897501   0.891609   4.288106  -2.295412  -1.898605  -0.572408   7.634920  -0.656027   1.747891  -2.484940  -1.289479   1.039429  -3.618672  -1.612763   2.729917  -4.056807  14.881847 -10.307139 -16.363599  36.288183  21.341194  -0.001102  83.526843   0.000456  -9.011310   8.612250   3.483522  -4.417685  -6.487918   8.007580 -27.917519   3.695581 -17.842460  -0.000963 -67.992626  -0.000122 -13.894973 -10.196676  10.914190 -26.466697  -0.672268  -8.391830  53.231115   0.020611  -0.004259 -10.892110  -6.749021   1.567936   1.278356  -0.000154   0.000058  -0.610132  -2.699039   5.088550  25.157733   0.001025   0.003577 -22.549877  -2.464290  -1.218065  -0.008072  -0.000100   0.000026
 -1.898120   0.893007   4.283610  -2.209981  -1.859337  -0.529830   7.510383  -0.656997   1.721940  -2.529447  -1.293631   1.114129  -3.712486  -1.648727   2.748187  -4.019927  14.963793 -10.312086 -16.379258  36.379251  21.317811   0.000425  83.269965  -0.000938  -9.012336   8.537042   3.457202  -4.392827  -6.360000   8.032260 -27.893656   3.745635 -17.775654  -0.001396 -68.177793  -0.000333 -13.897565 -10.148733  10.905591 -25.665902  -0.459995  -8.759219  54.112592   0.020137  -0.004020 -10.928527  -6.713589   1.292673   1.280002  -0.000110   0.000046  -0.783371  -2.869280   5.065012  24.646375   0.001107   0.003326 -21.969753  -2.341165  -1.095614   0.025941  -0.000124   0.000021
 -1.898853   0.894296   4.279187  -2.112281  -1.846704  -0.490774   7.380024  -0.645359   1.697822  -2.585563  -1.285735   1.186514  -3.801538  -1.682057   2.765329  -3.989149  15.045614 -10.319122 -16.397892  36.467467  21.295299   0.001634  83.030839  -0.002016  -9.013379   8.468199   3.422569  -4.373490  -6.235849   8.063458 -27.874753   3.792650 -17.706205  -0.001763 -68.351348  -0.000544 -13.897722 -10.113788  10.912661 -24.882086  -0.265697  -9.125853  54.941377   0.019381  -0.004047 -10.962044  -6.680313   1.035584   1.283107  -0.000063   0.000036  -0.971024  -3.020173   5.053529  24.162077   0.001199   0.003117 -21.415118  -2.211338  -0.978895   0.060966  -0.000146   0.000017
 -1.899709   0.895486   4.274823  -2.006733  -1.860503  -0.455949   7.249009  -0.623984   1.675323  -2.648157  -1.268020   1.256433  -3.885636  -1.713027   2.781614  -3.963078  15.126813 -10.327335 -16.418615  36.552846  21.274151   0.002499  82.808446  -0.002763  -9.014655   8.407826   3.382048  -4.358542  -6.115500   8.098692 -27.859692   3.837449 -17.635696  -0.002033 -68.513507  -0.000718 -13.896621 -10.085899  10.933766 -24.122033  -0.089622  -9.487402  55.721158   0.018397  -0.004235 -10.992937  -6.649030   0.795540   1.286863  -0.000022   0.000027  -1.168663  -3.152453   5.055256  23.703140   0.001299   0.002943 -20.884247  -2.074320  -0.867112   0.097218  -0.000167   0.000014
 -1.900690   0.896585   4.270504  -1.897051  -1.898549  -0.425111   7.121215  -0.595720   1.653945  -2.713265  -1.243134   1.323368  -3.964721  -1.741847   2.797079  -3.940592  15.206632 -10.336152 -16.440529  36.635102  21.254511   0.003041  82.601579  -0.003207  -9.016173   8.355218   3.337855  -4.346996  -5.999536   8.136094 -27.847579   3.880209 -17.565532  -0.002196 -68.664838  -0.000842 -13.894828 -10.062310  10.965633 -23.390444   0.069337  -9.841321  56.454368   0.017247  -0.004495 -11.021472  -6.619601   0.571442   1.290747   0.000010   0.000019  -1.372841  -3.267609   5.070446  23.268113   0.001401   0.002794 -20.375494  -1.930890  -0.759709   0.134865  -0.000187   0.000012
 -1.901712   0.897575   4.266435  -1.787322  -1.910697  -0.389809   6.907458  -0.581314   1.619459  -2.723878  -1.227058   1.404394  -4.028392  -1.768893   2.792681  -3.881563  15.296230 -10.346871 -16.516967  36.679921  21.273040   0.005162  82.264298  -0.005271  -8.998818   8.383658   3.337168  -4.305370  -5.878074   8.182119 -27.822362   3.939719 -17.533024  -0.002544 -68.889834  -0.001044 -13.875246 -10.006918  10.967072 -22.452810   0.263402 -10.229007  56.613414   0.014477  -0.003757 -10.904272  -6.479025   0.375520   1.293484   0.000028   0.000018  -1.573319  -3.385455   5.092960  22.852963   0.001472   0.002566 -19.883003  -1.811306  -0.714826   0.160368  -0.000174   0.000010
